<svg width="16" height="14" viewBox="0 0 16 14" fill="none" xmlns="http://www.w3.org/2000/svg">
    <path d="M15.7396 6.38135L9.51736 0.256348C9.17014 -0.0854492 8.60764 -0.0854492 8.26042 0.256348C7.91319 0.598145 7.91319 1.15185 8.26042 1.49365L12.9653 6.125H0.888889C0.397569 6.125 0 6.51636 0 7C0 7.48364 0.397569 7.875 0.888889 7.875H12.9653L8.26042 12.5063C7.91319 12.8481 7.91319 13.4019 8.26042 13.7437C8.43403 13.9146 8.66146 14 8.88889 14C9.11632 14 9.34375 13.9146 9.51736 13.7437L15.7396 7.61865C16.0868 7.27686 16.0868 6.72314 15.7396 6.38135Z" fill="#ffffff" />
</svg>
