<svg width="7" height="7" viewBox="0 0 7 7" fill="none" xmlns="http://www.w3.org/2000/svg">
<path d="M0.650391 3.42578C0.650391 2.66406 0.776367 2.05176 1.02832 1.58887C1.28613 1.12598 1.63184 0.789062 2.06543 0.578125C2.49902 0.367188 2.98535 0.261719 3.52441 0.261719C4.05762 0.261719 4.54102 0.367188 4.97461 0.578125C5.4082 0.789062 5.75391 1.12598 6.01172 1.58887C6.27539 2.05176 6.40723 2.66406 6.40723 3.42578C6.40723 4.17578 6.27539 4.78516 6.01172 5.25391C5.75391 5.7168 5.4082 6.05664 4.97461 6.27344C4.54102 6.49023 4.05762 6.59863 3.52441 6.59863C2.98535 6.59863 2.49902 6.49023 2.06543 6.27344C1.63184 6.05664 1.28613 5.7168 1.02832 5.25391C0.776367 4.78516 0.650391 4.17578 0.650391 3.42578Z" fill="#29B5E4"/>
</svg>
