<svg width="79" height="69" viewBox="0 0 79 69" fill="none" xmlns="http://www.w3.org/2000/svg">
    <path d="M5.888 68.608L0 58.88C6.48533 54.6133 11.264 50.0053 14.336 45.056C17.5787 40.1067 19.2 33.9627 19.2 26.624L16.384 9.728L26.88 22.784C25.344 24.32 23.808 25.4293 22.272 26.112C20.9067 26.7947 19.2 27.136 17.152 27.136C13.568 27.136 10.4107 26.0267 7.68 23.808C4.94933 21.5893 3.584 18.432 3.584 14.336C3.584 9.89867 4.864 6.4 7.424 3.84C9.984 1.28 13.2267 0 17.152 0C22.272 0 26.1973 2.048 28.928 6.144C31.8293 10.0693 33.28 15.7867 33.28 23.296C33.28 33.536 30.8907 42.3253 26.112 49.664C21.504 57.1733 14.7627 63.488 5.888 68.608ZM51.2 68.608L45.312 58.88C51.7973 54.6133 56.576 50.0053 59.648 45.056C62.8907 40.1067 64.512 33.9627 64.512 26.624L61.696 9.728L72.192 22.784C70.656 24.32 69.12 25.4293 67.584 26.112C66.2187 26.7947 64.512 27.136 62.464 27.136C58.88 27.136 55.7227 26.0267 52.992 23.808C50.2613 21.5893 48.896 18.432 48.896 14.336C48.896 9.89867 50.176 6.4 52.736 3.84C55.296 1.28 58.5387 0 62.464 0C67.584 0 71.5093 2.048 74.24 6.144C77.1413 10.0693 78.592 15.7867 78.592 23.296C78.592 33.536 76.2027 42.3253 71.424 49.664C66.816 57.1733 60.0747 63.488 51.2 68.608Z" fill="#1F3566" />
</svg>
